<svg xmlns="http://www.w3.org/2000/svg" xmlns:xlink="http://www.w3.org/1999/xlink" width="512" zoomAndPan="magnify" viewBox="0 0 384 383.999986" height="512" preserveAspectRatio="xMidYMid meet" version="1.0"><defs><clipPath id="285a8096ff"><path d="M 4.160156 80.507812 L 225.410156 80.507812 L 225.410156 303.257812 L 4.160156 303.257812 Z M 4.160156 80.507812 " clip-rule="nonzero"/></clipPath><clipPath id="181650d0b8"><path d="M 114.824219 80.507812 C 53.707031 80.507812 4.160156 130.421875 4.160156 191.996094 C 4.160156 253.566406 53.707031 303.480469 114.824219 303.480469 C 175.941406 303.480469 225.488281 253.566406 225.488281 191.996094 C 225.488281 130.421875 175.941406 80.507812 114.824219 80.507812 Z M 114.824219 80.507812 " clip-rule="nonzero"/></clipPath><clipPath id="dc811f465c"><path d="M 0 47.507812 L 125.691406 47.507812 L 125.691406 366.136719 L 0 366.136719 Z M 0 47.507812 " clip-rule="nonzero"/></clipPath><clipPath id="7a7f8bd1b1"><path d="M 0 0.507812 L 125.691406 0.507812 L 125.691406 319.136719 L 0 319.136719 Z M 0 0.507812 " clip-rule="nonzero"/></clipPath><clipPath id="55ee385549"><rect x="0" width="126" y="0" height="320"/></clipPath><clipPath id="27008015d5"><path d="M 313.46875 47.507812 L 384 47.507812 L 384 366.136719 L 313.46875 366.136719 Z M 313.46875 47.507812 " clip-rule="nonzero"/></clipPath><clipPath id="4b7421fce1"><path d="M 0.46875 0.507812 L 71 0.507812 L 71 319.136719 L 0.46875 319.136719 Z M 0.46875 0.507812 " clip-rule="nonzero"/></clipPath><clipPath id="cd86aaf857"><rect x="0" width="71" y="0" height="320"/></clipPath><clipPath id="9d95ee1259"><path d="M 158.21875 79.992188 L 383.96875 79.992188 L 383.96875 304.003906 L 158.21875 304.003906 Z M 158.21875 79.992188 " clip-rule="nonzero"/></clipPath><clipPath id="555b802780"><path d="M 271.273438 79.992188 C 208.835938 79.992188 158.21875 130.136719 158.21875 191.996094 C 158.21875 253.855469 208.835938 304.003906 271.273438 304.003906 C 333.714844 304.003906 384.332031 253.855469 384.332031 191.996094 C 384.332031 130.136719 333.714844 79.992188 271.273438 79.992188 Z M 271.273438 79.992188 " clip-rule="nonzero"/></clipPath><clipPath id="28c6faae45"><path d="M 312.59375 38.398438 L 384 38.398438 L 384 370.027344 L 312.59375 370.027344 Z M 312.59375 38.398438 " clip-rule="nonzero"/></clipPath><clipPath id="50b37cbc29"><path d="M 0.59375 0.398438 L 72 0.398438 L 72 332.027344 L 0.59375 332.027344 Z M 0.59375 0.398438 " clip-rule="nonzero"/></clipPath><clipPath id="fea80e96fc"><rect x="0" width="72" y="0" height="333"/></clipPath></defs><g clip-path="url(#285a8096ff)"><g clip-path="url(#181650d0b8)"><path stroke-linecap="butt" transform="matrix(0.75, 0, 0, 0.75, 4.158488, 80.509117)" fill="none" stroke-linejoin="miter" d="M 147.554319 -0.0017391 C 66.064729 -0.0017391 0.00222424 66.55035 0.00222424 148.649314 C 0.00222424 230.743071 66.064729 297.295159 147.554319 297.295159 C 229.043909 297.295159 295.106414 230.743071 295.106414 148.649314 C 295.106414 66.55035 229.043909 -0.0017391 147.554319 -0.0017391 Z M 147.554319 -0.0017391 " stroke="#121212" stroke-width="54" stroke-opacity="1" stroke-miterlimit="4"/></g></g><g clip-path="url(#dc811f465c)"><g transform="matrix(1, 0, 0, 1, 0, 47)"><g clip-path="url(#55ee385549)"><g clip-path="url(#7a7f8bd1b1)"><path fill="#ffffff" d="M -28.632812 0.507812 L 125.691406 0.507812 L 125.691406 319.40625 L -28.632812 319.40625 Z M -28.632812 0.507812 " fill-opacity="1" fill-rule="nonzero"/></g></g></g></g><g clip-path="url(#27008015d5)"><g transform="matrix(1, 0, 0, 1, 313, 47)"><g clip-path="url(#cd86aaf857)"><g clip-path="url(#4b7421fce1)"><path fill="#121212" d="M 0.46875 0.507812 L 115.667969 0.507812 L 115.667969 319.105469 L 0.46875 319.105469 Z M 0.46875 0.507812 " fill-opacity="1" fill-rule="nonzero"/></g></g></g></g><path stroke-linecap="butt" transform="matrix(0, -0.75, 0.75, 0, 99.195599, 305.559967)" fill="none" stroke-linejoin="miter" d="M 0.00183101 8.499618 L 299.376855 8.499618 " stroke="#121212" stroke-width="17" stroke-opacity="1" stroke-miterlimit="4"/><path stroke-linecap="butt" transform="matrix(0, -0.75, 0.75, 0, 71.595134, 305.559967)" fill="none" stroke-linejoin="miter" d="M 0.00183101 8.498156 L 299.376855 8.498156 " stroke="#121212" stroke-width="17" stroke-opacity="1" stroke-miterlimit="4"/><g clip-path="url(#9d95ee1259)"><g clip-path="url(#555b802780)"><path stroke-linecap="butt" transform="matrix(0.75, 0, 0, 0.75, 158.218192, 79.98956)" fill="none" stroke-linejoin="miter" d="M 150.740339 0.00350324 C 67.490332 0.00350324 0.000743634 66.862884 0.000743634 149.342057 C 0.000743634 231.82123 67.490332 298.685819 150.740339 298.685819 C 233.995554 298.685819 301.485143 231.82123 301.485143 149.342057 C 301.485143 66.862884 233.995554 0.00350324 150.740339 0.00350324 Z M 150.740339 0.00350324 " stroke="#ffc300" stroke-width="44" stroke-opacity="1" stroke-miterlimit="4"/></g></g><path stroke-linecap="butt" transform="matrix(0.75, 0, 0, 0.75, 167.617904, 185.249985)" fill="none" stroke-linejoin="miter" d="M -0.000955774 9.00002 L 219.321978 9.00002 " stroke="#ffc300" stroke-width="18" stroke-opacity="1" stroke-miterlimit="4"/><g clip-path="url(#28c6faae45)"><g transform="matrix(1, 0, 0, 1, 312, 38)"><g clip-path="url(#fea80e96fc)"><g clip-path="url(#50b37cbc29)"><path fill="#ffffff" d="M 0.59375 0.398438 L 115.792969 0.398438 L 115.792969 332.050781 L 0.59375 332.050781 Z M 0.59375 0.398438 " fill-opacity="1" fill-rule="nonzero"/></g></g></g></g></svg>